<svg height="512" viewBox="0 0 60 61" width="512" xmlns="http://www.w3.org/2000/svg"><g id="015---Astronaut" fill="none"><g id="Icons" transform="translate(0 2)"><path id="Shape" d="m41.89 14c.0047908 4.1435186-1.826118 8.0763105-5 10.74-4.4475093 3.7098596-10.7202289 4.2981755-15.78 1.48-1.8264028-4.1539191-2.5893694-8.6973506-2.22-13.22 0 0 5.98-12.8 21.11-6.07 1.2493059 2.14591337 1.9018585 4.5869437 1.89 7.07z" fill="#ff9801"/><path id="Shape" d="m40 6.93c-3.0375996-1.47686302-6.4113329-2.12539252-9.78-1.88 2.3476278.25154745 4.6380629.88665334 6.78 1.88 3.4494225 5.89997 2.1348304 13.4282292-3.11 17.81-2.1229088 1.7748902-4.7275654 2.8752531-7.48 3.16.501081.0601658 1.0053199.0902198 1.51.09 3.2896432.0133592 6.4778678-1.1379441 9-3.25 5.2346561-4.389965 6.5363626-11.9170402 3.08-17.81z" fill="#f57c00"/><path id="Shape" d="m40 6.93c-15.13-6.73-21.11 6.07-21.11 6.07-.3804701 4.5234566.3722033 9.0704288 2.19 13.23-2.1544066-1.1951386-3.9524516-2.9414165-5.21-5.06-2.5437311-4.3104093-2.5946595-9.6504562-.133601-14.00859662 2.4610585-4.35814039 7.0602105-7.07226909 12.0650001-7.12000006 5.0047895-.04773097 9.6548699 2.57818726 12.1986009 6.88859668z" fill="#02a9f4"/><path id="Shape" d="m36 5.55c1.3716311.34042874 2.7102446.80225038 4 1.38-2.5160068-4.30024616-7.1277997-6.93936468-12.11-6.93-.5080044-.00021297-1.0155703.02984027-1.52.09 3.8260335.41276812 7.3112377 2.38880292 9.63 5.46z" fill="#0377bc"/><path id="Shape" d="m7.09 34.33c-.85590934.2866439-1.73155898.5105695-2.62.67-.91127383.1478098-1.83985385-.1321722-2.51753799-.7590789-.67768414-.6269066-1.02899451-1.5309154-.95246201-2.4509211.14731736-1.4384357 1.25789676-2.5903005 2.69-2.79.67894669-.1130024 1.34775178-.2802037 2-.5.87083584 1.823478 1.34785542 3.8099238 1.4 5.83z" fill="#02a9f4"/><path id="Shape" d="m10.71 32.79c-1.15312617.6310487-2.36565697 1.1468767-3.62 1.54-.06292421-2.0188605-.55015614-4.0018603-1.43-5.82 1.20711312-.414072 2.35125562-.9928735 3.4-1.72.90422716 1.885293 1.4630704 3.9174502 1.65 6z" fill="#0377bc"/><path id="Shape" d="m12.9 51c-.0318888.3023051-.0485764.6060209-.05.91.0163186 2.048854-1.482397 3.7952205-3.51 4.09-1.14284478.1410941-2.29105815-.217181-3.1508703-.9831606-.85981214-.7659796-1.3478064-1.8653506-1.3391297-3.0168394 0-.33 0-.67 0-1 2.54136464-1.1560947 5.4586354-1.1560947 8 0z" fill="#607d8b"/><path id="Shape" d="m47.87 28.08c-3.5371873 2.7302974-7.7725917 4.4078225-12.22 4.84-1.1259903 4.8576604-3.4071797 9.3720143-6.65 13.16-1.7177496 1.9242849-2.7697303 4.3508539-3 6.92h-.06c-2.5363703-1.1789096-5.4636297-1.1789096-8 0 .1136082-2.1278075.5764537-4.2224369 1.37-6.2-1.4760388-.2184964-2.8615541-.8454421-4-1.81-1.3217089 1.744082-2.131939 3.8215953-2.34 6-2.5413646-1.1560947-5.45863536-1.1560947-8 0 .2436651-4.5255932 2.01719243-8.8342421 5.03-12.22 2.1582943-2.5314211 3.7292348-5.5093778 4.6-8.72-1.1755148 1.0560779-2.4671175 1.9752964-3.85 2.74-.1869296-2.0825498-.7457728-4.114707-1.65-6 1.2760631-.8712194 2.4009316-1.9454182 3.33-3.18.743467-1.1257172 2.1469061-1.6167163 3.43-1.2 0-.49 0-.9 0-1.24 2.098035 3.5210405 5.6336808 5.9458328 9.6741061 6.6346291s8.1797585-.4275948 11.3258939-3.0546291c-.0320921.4668521.166266.9198687.5310923 1.2129259.3648264.2930572.8499563.389072 1.2989077.2570741 1.8346352-.5828883 3.563433-1.4574169 5.12-2.59.8886827 1.8486918 2.3003405 3.3959522 4.06 4.45z" fill="#02a9f4"/><path id="Shape" d="m43.82 23.65c-.7045668.5005569-1.4430056.9516394-2.21 1.35.8420033 1.2607563 1.9559983 2.3166595 3.26 3.09-3.5371873 2.7302974-7.7725917 4.4078225-12.22 4.84-1.1274938 4.8541218-3.4086028 9.3648864-6.65 13.15-1.5270088 1.7030953-2.5395391 3.8044426-2.92 6.06.9866897.104955 1.9458313.3896472 2.83.84h.09c.2344519-2.5621327 1.2861667-4.9810766 3-6.9 3.2485934-3.7830872 5.5366446-8.2940127 6.67-13.15 4.4474083-.4321775 8.6828127-2.1097026 12.22-4.84-1.7619013-1.0498582-3.1770232-2.5936276-4.07-4.44z" fill="#0377bc"/><path id="Shape" d="m51.13 25.11c-.9993342 1.0909293-2.0899591 2.0945719-3.26 3-1.7345391-1.0577398-3.1242426-2.5968365-4-4.43 1.1197387-.8105305 2.1519783-1.7355244 3.08-2.76 1.0850238 1.7013057 2.5286943 3.1449762 4.23 4.23z" fill="#0377bc"/><path id="Shape" d="m54.57 20.34c-.9326443 1.7339007-2.0892234 3.3376455-3.44 4.77-1.7013057-1.0850238-3.1449762-2.5286943-4.23-4.23.8993934-.9766333 1.6782988-2.0577002 2.32-3.22.7713729-1.4254741 2.5355002-1.9805195 3.9841052-1.2535144 1.4486049.7270051 2.0578392 2.4731592 1.3758948 3.9435144z" fill="#02a9f4"/><path id="Shape" d="m26 53c-.0399006.3318407-.0599363.6657691-.06 1 .0152907 2.0311215-1.4941116 3.7512381-3.51 4-1.1428448.1410941-2.2910582-.217181-3.1508703-.9831606s-1.3478064-1.8653506-1.3391297-3.0168394c0-.34 0-.67 0-1 2.5363703-1.1789096 5.4636297-1.1789096 8 0z" fill="#607d8b"/></g><g id="Stroke" fill="#000" transform="translate(-1)"><path id="Shape" d="m38.45 19.1c-.2426524-.1075849-.5181224-.1142845-.7657178-.0186226-.2475955.0956619-.4470007.2858359-.5542822.5286226-1.4332061 3.2730566-4.6669094 5.3883067-8.24 5.39-.5522847 0-1 .4477153-1 1s.4477153 1 1 1c4.3817467.0130188 8.3533295-2.5757775 10.11-6.59.102074-.2465323.1013884-.5236343-.0019042-.7696585-.1032926-.2460243-.3006248-.4405647-.5480958-.5403415z"/><path id="Shape" d="m54.69 17.44c-1.9664233-.9958957-4.3679272-.2132827-5.37 1.75-2.2080238 3.8191761-5.7416956 6.6945103-9.93 8.08-.1166944.0296598-.2405062.0078107-.34-.06-.0377776-.0373978-.0682934-.0814762-.09-.13 5.8057507-5.2681066 6.5755538-14.1184371 1.7665508-20.30981659-4.8090029-6.19137944-13.5746189-7.63530584-20.1154129-3.31353503s-8.650398 12.95140102-4.8411379 19.80335162c-1.2841843.0325134-2.4746149.67981-3.2 1.74-1.9866003 2.5942739-4.8532567 4.3725967-8.06 5-1.89300429.2723232-3.34801025 1.8143808-3.51 3.72-.16499628 2.1400003 1.38840012 4.0287891 3.52 4.28 1.33.16 5.42-.79 9-3.06-.8074501 1.893461-1.9075457 3.6482147-3.26 5.2-3.42959017 3.8078967-5.35305097 8.7356539-5.41 13.86 0 2.7614237 2.23857625 5 5 5 2.7789114-.0329313 5.0111797-2.3009159 5-5.08.0184956-1.9513715.5793998-3.8591383 1.62-5.51.7843026.4897498 1.6369146.8604507 2.53 1.1-.6793378 2.0989036-1.0531673 4.2846279-1.11 6.49 0 2.7614237 2.2385763 5 5 5s5-2.2385763 5-5c.0307522-2.6773284 1.0369627-5.2515206 2.83-7.24 3.2184846-3.7149739 5.5201946-8.1334351 6.72-12.9 8.0371492-1.1097284 15.0794866-5.9467022 19-13.05.9958957-1.9664233.2132827-4.3679272-1.75-5.37zm-6.92 7c.8140898 1.061352 1.7657729 2.0096723 2.83 2.82-.53.53-1.12 1.06-1.76 1.59-1.1186737-.7850651-2.047947-1.8099988-2.72-3 .5769761-.4374829 1.1279138-.9082842 1.65-1.41zm-18.88 4.56c-2.0915031-.000585-4.1512025-.512077-6-1.49-1.6082247-3.8622815-2.2930469-8.0465447-2-12.22.7-1.37 6.29-11.23 19.4-5.57 2.2233545 4.0298248 2.1502117 8.9348815-.1923107 12.8966212-2.3425225 3.9617398-6.6052166 6.3895722-11.2076893 6.3833788zm0-26c3.4402763-.00268082 6.7400061 1.36470991 9.17 3.8-13.42-3.92-19.06 7.65-19.06 7.78-.31.67-.51 5.67 1.06 10.92-3.8955145-3.6388083-5.1748236-9.2870102-3.2274285-14.2492286 1.947395-4.96221846 6.7267969-8.23271283 12.0574285-8.2507714zm-19.28 27.25c.4883715 1.2897143.8239916 2.6321949 1 4-.5245993.2571952-1.06196258.4874938-1.61.69-.17025586-1.3267288-.50621009-2.6268717-1-3.87.55216426-.2417748 1.08974519-.5155738 1.61-.82zm-4.31 5.75c-.6073033.094517-1.22434055-.0954453-1.67333285-.5151556-.44899231-.4197102-.68007424-1.0225549-.62666715-1.6348444.13163751-.9656671.89363732-1.7235701 1.86-1.85.42-.08.83-.17 1.22-.28.52963408 1.2311493.86690455 2.536386 1 3.87-.58.15-1.17.28-1.78.41zm4.92 21c-.8575345.1066019-1.71938958-.1617496-2.36482931-.7363251-.64543974-.5745754-1.01177124-1.3995651-1.00517069-2.2636749 0-.11 0-.21 0-.32 1.93546703-.718515 4.064533-.718515 6 0v.26c-.0145277 1.5243575-1.1251382 2.8165506-2.63 3.06zm13 2c-.8575345.1066019-1.7193896-.1617496-2.3648293-.7363251-.6454397-.5745754-1.0117712-1.3995651-1.0051707-2.2636749 0-.11 0-.22 0-.34 1.9341697-.7257015 4.0658303-.7257015 6 0v.34c-.0116164 1.4995383-1.1082039 2.7697168-2.59 3zm13.28-25c-.4151688.0458571-.7581014.3449263-.86.75-1.0879917 4.7028299-3.3013696 9.0712486-6.45 12.73-1.5624845 1.7451768-2.6324262 3.8747059-3.1 6.17-1.9637779-.628087-4.0703011-.6559419-6.05-.08.1918463-1.2598243.5135601-2.4964115.96-3.69.6404088.0779723 1.2848649.1180421 1.93.12.5522847 0 1-.4477153 1-1s-.4477153-1-1-1c-3.32 0-5.09-.94-6-1.81-.4396403-.3967078-.7818452-.8894828-1-1.44-.0571682-.2791526-.230709-.5206593-.477047-.6638791-.2463381-.1432198-.5420751-.174549-.812953-.0861209-.5313968.1373917-.8527367.6774214-.72 1.21.204844.6749109.545103 1.3009874 1 1.84-.9043569 1.3733232-1.5358499 2.9079191-1.86 4.52-1.9718908-.6104209-4.08022297-.6243373-6.06-.04.52383129-3.7543449 2.14897511-7.2691099 4.67-10.1 2.264133-2.6366489 3.9108752-5.7456435 4.82-9.1.1166604-.4294329-.0644803-.8842874-.444417-1.1159561s-.8672464-.184406-1.195583.1159561c-.7495771.6837031-1.5558008 1.3025885-2.41 1.85-.2381609-1.3742841-.6341132-2.7164951-1.18-4 1.1123096-.838621 2.0989651-1.8320113 2.93-2.95.4948244-.7475053 1.4265972-1.0744431 2.28-.8.2136603.0746921.4463397.0746921.66 0 1.8089462 2.2774259 4.2409673 3.9798406 7 4.9-1.8376506 2.03275-3.1582769 4.4784813-3.85 7.13-.6112938-.2761429-1.1830057-.6326221-1.7-1.06-.3900375-.3877236-1.0199625-.3877236-1.41 0-.1893127.1877666-.2957983.4433625-.2957983.71s.1064856.5222334.2957983.71c.8105976.7048842 1.7333098 1.2693271 2.73 1.67-.1406429 1.239356-.1406429 2.490644 0 3.73.0563151.5089349.4879683.8931062 1 .89.2854235.0017327.5579844-.1185847.7490317-.3306471.1910473-.2120625.2823707-.4956569.2509683-.7793529-.0894857-.9345294-.0894857-1.8754706 0-2.81 2.2777103.6379896 4.6347889.9477771 7 .92.5522847 0 1-.4477153 1-1s-.4477153-1-1-1c-2.2735821.0340459-4.5392276-.2761318-6.72-.92.681707-2.7843535 2.1378723-5.3187747 4.2-7.31 3.8436085.6705879 7.7965707-.2026574 11-2.43.6007456.803154 1.6450135 1.1365165 2.6.83 1.5878579-.498291 3.1014401-1.2079929 4.5-2.11.7005771 1.1506936 1.6014467 2.166712 2.66 3-3.1646758 2.118938-6.8080528 3.4147429-10.6 3.77zm18.13-12c-.7325576 1.351291-1.6147689 2.6159057-2.63 3.77-1.083536-.7924371-2.0352401-1.7508908-2.82-2.84.735116-.8759831 1.384742-1.8202848 1.94-2.82.4955385-.9843899 1.6940356-1.3823983 2.68-.89.9711104.5025405 1.3586267 1.6918148.87 2.67z"/><circle id="Oval" cx="38.89" cy="16" r="1"/><path id="Shape" d="m60 57h-1v-1c0-.5522847-.4477153-1-1-1s-1 .4477153-1 1v1h-1c-.5522847 0-1 .4477153-1 1s.4477153 1 1 1h1v1c0 .5522847.4477153 1 1 1s1-.4477153 1-1v-1h1c.5522847 0 1-.4477153 1-1s-.4477153-1-1-1z"/><path id="Shape" d="m45 43h-1v-1c0-.5522847-.4477153-1-1-1s-1 .4477153-1 1v1h-1c-.5522847 0-1 .4477153-1 1s.4477153 1 1 1h1v1c0 .5522847.4477153 1 1 1s1-.4477153 1-1v-1h1c.5522847 0 1-.4477153 1-1s-.4477153-1-1-1z"/><path id="Shape" d="m54 7c.5522847 0 1-.44771525 1-1v-1h1c.5522847 0 1-.44771525 1-1s-.4477153-1-1-1h-1v-1c0-.55228475-.4477153-1-1-1s-1 .44771525-1 1v1h-1c-.5522847 0-1 .44771525-1 1s.4477153 1 1 1h1v1c0 .55228475.4477153 1 1 1z"/></g></g></svg>