<?xml version="1.0" encoding="iso-8859-1"?>
<!-- Generator: Adobe Illustrator 19.0.0, SVG Export Plug-In . SVG Version: 6.00 Build 0)  -->
<svg version="1.1" id="Capa_1" xmlns="http://www.w3.org/2000/svg" xmlns:xlink="http://www.w3.org/1999/xlink" x="0px" y="0px"
	 viewBox="0 0 512 512" style="enable-background:new 0 0 512 512;" xml:space="preserve">
<path style="fill:#19BACD;" d="M187,389.164v17.307h138v-17.307h152.565V90.783c0-14.499-11.754-26.253-26.253-26.253H60.688
	c-14.499,0-26.253,11.754-26.253,26.253v298.381H187z"/>
<rect x="74.44" y="104.53" style="fill:#E8E1E0;" width="363.13" height="244.63"/>
<path style="fill:#085CA8;" d="M325,389.164v17.307H187v-17.307H10v33.807c0,13.531,10.969,24.5,24.5,24.5h443
	c13.531,0,24.5-10.969,24.5-24.5v-33.807H325z"/>
<path d="M400.18,152.189c-0.65,0-1.31-0.06-1.95-0.189c-0.64-0.13-1.27-0.32-1.87-0.57c-0.61-0.25-1.19-0.56-1.73-0.92
	c-0.55-0.37-1.06-0.78-1.52-1.25c-0.46-0.46-0.88-0.97-1.24-1.52c-0.36-0.54-0.67-1.12-0.92-1.721c-0.25-0.609-0.44-1.24-0.57-1.87
	c-0.13-0.649-0.2-1.31-0.2-1.96c0-0.65,0.07-1.31,0.2-1.949c0.13-0.641,0.32-1.271,0.57-1.87c0.25-0.61,0.56-1.19,0.92-1.73
	c0.36-0.55,0.78-1.06,1.24-1.52s0.97-0.88,1.52-1.24c0.54-0.36,1.12-0.67,1.73-0.92c0.6-0.25,1.23-0.441,1.87-0.57
	c1.29-0.26,2.62-0.26,3.91,0c0.63,0.13,1.26,0.32,1.87,0.57c0.6,0.25,1.18,0.559,1.72,0.92c0.55,0.36,1.06,0.78,1.52,1.24
	s0.88,0.97,1.25,1.52c0.36,0.54,0.67,1.12,0.92,1.73c0.25,0.6,0.44,1.229,0.57,1.87c0.13,0.64,0.19,1.3,0.19,1.949
	c0,0.65-0.06,1.311-0.19,1.96c-0.13,0.63-0.32,1.261-0.57,1.87c-0.25,0.601-0.56,1.181-0.92,1.721c-0.37,0.55-0.79,1.06-1.25,1.52
	c-0.46,0.47-0.97,0.88-1.52,1.25c-0.54,0.36-1.12,0.67-1.72,0.92c-0.61,0.25-1.24,0.44-1.87,0.57
	C401.49,152.13,400.83,152.189,400.18,152.189z"/>
<path d="M111.82,326.16c-0.65,0-1.31-0.061-1.96-0.19c-0.63-0.13-1.26-0.32-1.87-0.57c-0.6-0.25-1.18-0.56-1.72-0.92
	c-0.55-0.37-1.06-0.779-1.52-1.25c-0.46-0.46-0.88-0.97-1.24-1.52c-0.36-0.54-0.67-1.12-0.92-1.72c-0.25-0.601-0.45-1.23-0.57-1.87
	c-0.13-0.65-0.2-1.301-0.2-1.96c0-0.65,0.07-1.301,0.19-1.95c0.13-0.641,0.32-1.27,0.57-1.87s0.56-1.18,0.92-1.73
	c0.37-0.54,0.79-1.05,1.25-1.52c0.46-0.46,0.97-0.88,1.52-1.24c0.54-0.359,1.12-0.67,1.72-0.92c0.61-0.25,1.24-0.439,1.87-0.57
	c1.29-0.26,2.62-0.26,3.91,0c0.64,0.131,1.27,0.32,1.87,0.57c0.61,0.25,1.19,0.561,1.73,0.92c0.55,0.36,1.06,0.78,1.52,1.24
	c0.46,0.47,0.88,0.979,1.24,1.52c0.36,0.551,0.67,1.131,0.92,1.73c0.25,0.6,0.45,1.229,0.57,1.87c0.13,0.649,0.2,1.3,0.2,1.95
	c0,2.63-1.07,5.21-2.93,7.069c-0.46,0.471-0.97,0.88-1.52,1.25c-0.54,0.36-1.12,0.67-1.73,0.92c-0.6,0.25-1.23,0.44-1.87,0.57
	C113.13,326.1,112.47,326.16,111.82,326.16z"/>
<polygon style="fill:#E8E1E0;" points="256,314.883 180.237,272.947 180.237,182.747 256,224.684 "/>
<polygon style="fill:#EFE89A;" points="256,314.883 331.763,272.947 331.763,182.747 256,224.684 "/>
<polygon style="fill:#F0A473;" points="180.237,182.747 256,140.811 331.763,182.747 256,224.684 "/>
<path d="M447.564,349.164V104.529c0-5.522-4.477-10-10-10H74.435c-5.523,0-10,4.478-10,10v244.635c0,5.522,4.477,10,10,10h363.129
	C443.087,359.164,447.564,354.686,447.564,349.164z M427.564,339.164h-17.383v-158.36c0-5.522-4.477-10-10-10s-10,4.478-10,10
	v158.36H84.435V114.529h17.383v163.024c0,5.522,4.477,10,10,10s10-4.478,10-10V114.529h305.746V339.164z"/>
<path d="M502,379.164h-14.435V90.782c0-19.99-16.263-36.253-36.253-36.253H60.688c-19.99,0-36.253,16.263-36.253,36.253v288.382H10
	c-5.523,0-10,4.478-10,10v33.807c0,19.023,15.477,34.5,34.5,34.5h443c19.023,0,34.5-15.477,34.5-34.5v-33.807
	C512,383.642,507.523,379.164,502,379.164z M44.435,90.782c0-8.962,7.291-16.253,16.253-16.253h390.624
	c8.962,0,16.253,7.291,16.253,16.253v288.382H325c-5.523,0-10,4.478-10,10v7.307H197v-7.307c0-5.522-4.477-10-10-10H44.435V90.782z
	 M492,422.971c0,7.995-6.504,14.5-14.5,14.5h-443c-7.996,0-14.5-6.505-14.5-14.5v-23.807h157v7.307c0,5.522,4.477,10,10,10h138
	c5.523,0,10-4.478,10-10v-7.307h157V422.971z"/>
<path d="M171.625,177.665c-0.006,0.009-0.011,0.018-0.016,0.027c-0.022,0.038-0.044,0.075-0.066,0.113
	c-0.007,0.012-0.013,0.024-0.02,0.036c-0.019,0.034-0.039,0.069-0.058,0.104c-0.01,0.017-0.019,0.035-0.028,0.052
	c-0.016,0.03-0.032,0.06-0.048,0.09c-0.01,0.019-0.02,0.039-0.03,0.058c-0.015,0.028-0.03,0.057-0.044,0.086
	c-0.011,0.021-0.021,0.043-0.032,0.064c-0.013,0.027-0.026,0.053-0.039,0.08c-0.012,0.025-0.024,0.05-0.036,0.075
	c-0.011,0.023-0.022,0.046-0.033,0.069c-0.013,0.027-0.025,0.055-0.038,0.082c-0.01,0.022-0.02,0.044-0.03,0.065
	c-0.012,0.027-0.023,0.053-0.035,0.08c-0.01,0.024-0.021,0.047-0.031,0.071c-0.012,0.027-0.023,0.054-0.034,0.081
	c-0.009,0.023-0.019,0.046-0.028,0.069c-0.011,0.028-0.022,0.055-0.033,0.083c-0.009,0.022-0.018,0.044-0.026,0.066
	c-0.011,0.029-0.022,0.058-0.033,0.087c-0.008,0.022-0.017,0.044-0.025,0.067c-0.01,0.028-0.021,0.057-0.031,0.085
	c-0.008,0.022-0.016,0.044-0.023,0.065c-0.011,0.031-0.021,0.061-0.032,0.092c-0.007,0.021-0.014,0.042-0.021,0.063
	c-0.01,0.03-0.02,0.06-0.029,0.089c-0.007,0.022-0.014,0.043-0.021,0.065c-0.01,0.032-0.02,0.063-0.03,0.095
	c-0.006,0.019-0.012,0.038-0.018,0.058c-0.009,0.031-0.019,0.063-0.028,0.095c-0.006,0.022-0.013,0.044-0.019,0.067
	c-0.008,0.029-0.016,0.059-0.024,0.088c-0.007,0.024-0.013,0.048-0.019,0.072c-0.008,0.029-0.015,0.058-0.023,0.088
	c-0.006,0.023-0.012,0.046-0.017,0.069c-0.007,0.03-0.015,0.061-0.022,0.091c-0.005,0.022-0.01,0.045-0.016,0.067
	c-0.007,0.031-0.014,0.062-0.021,0.093c-0.005,0.022-0.01,0.045-0.014,0.067c-0.007,0.031-0.013,0.063-0.02,0.094
	c-0.005,0.023-0.009,0.045-0.013,0.068c-0.006,0.03-0.012,0.061-0.017,0.091c-0.005,0.024-0.009,0.049-0.013,0.073
	c-0.005,0.031-0.011,0.061-0.016,0.091c-0.004,0.023-0.007,0.046-0.011,0.069c-0.005,0.031-0.01,0.062-0.014,0.093
	c-0.003,0.022-0.007,0.045-0.01,0.067c-0.005,0.033-0.01,0.066-0.014,0.1c-0.003,0.02-0.005,0.041-0.008,0.061
	c-0.004,0.033-0.008,0.066-0.012,0.1c-0.003,0.027-0.006,0.054-0.009,0.081s-0.006,0.054-0.009,0.081
	c-0.003,0.032-0.006,0.065-0.009,0.097c-0.002,0.023-0.004,0.045-0.006,0.068c-0.002,0.029-0.004,0.058-0.007,0.087
	c-0.002,0.027-0.004,0.055-0.006,0.082c-0.002,0.025-0.003,0.051-0.005,0.076c-0.002,0.03-0.004,0.059-0.005,0.089
	c-0.001,0.024-0.002,0.048-0.003,0.072c-0.001,0.033-0.003,0.065-0.004,0.098c-0.004,0.11-0.006,0.221-0.006,0.332v90.199
	c0,3.638,1.975,6.987,5.157,8.749l75.674,41.888c0.123,0.069,0.246,0.136,0.371,0.2l0.004,0.002
	c0.044,0.022,0.088,0.045,0.133,0.067c0.007,0.003,0.013,0.006,0.02,0.01c0.042,0.02,0.084,0.041,0.126,0.061
	c0.007,0.003,0.014,0.007,0.021,0.01c0.04,0.019,0.08,0.037,0.12,0.055c0.012,0.005,0.024,0.011,0.036,0.017
	c0.037,0.017,0.074,0.033,0.112,0.049c0.013,0.006,0.026,0.011,0.038,0.017c0.035,0.015,0.07,0.03,0.106,0.045
	c0.019,0.008,0.038,0.016,0.057,0.023c0.03,0.012,0.061,0.025,0.091,0.037c0.023,0.009,0.047,0.018,0.07,0.027
	c0.026,0.01,0.052,0.021,0.078,0.03c0.031,0.012,0.062,0.023,0.092,0.034c0.019,0.007,0.039,0.014,0.058,0.021
	c0.038,0.014,0.075,0.027,0.113,0.04c0.014,0.005,0.027,0.01,0.041,0.014c0.104,0.035,0.208,0.069,0.312,0.101
	c0.004,0.001,0.008,0.003,0.012,0.004c0.101,0.031,0.203,0.06,0.305,0.088c0.008,0.002,0.015,0.004,0.023,0.006
	c0.045,0.012,0.091,0.024,0.136,0.036c0.008,0.002,0.017,0.004,0.025,0.006c0.044,0.011,0.089,0.022,0.133,0.032
	c0.011,0.003,0.022,0.005,0.033,0.008c0.041,0.009,0.083,0.019,0.124,0.028c0.014,0.003,0.028,0.006,0.042,0.009
	c0.038,0.008,0.076,0.016,0.115,0.024c0.016,0.003,0.032,0.006,0.049,0.009c0.038,0.007,0.075,0.015,0.113,0.022
	c0.015,0.003,0.031,0.005,0.046,0.008c0.038,0.007,0.076,0.013,0.113,0.02c0.016,0.003,0.032,0.005,0.049,0.008
	c0.036,0.006,0.072,0.011,0.108,0.017c0.02,0.003,0.04,0.006,0.059,0.009c0.033,0.005,0.065,0.009,0.098,0.014
	c0.021,0.003,0.042,0.006,0.063,0.008c0.033,0.004,0.066,0.008,0.098,0.012c0.021,0.003,0.042,0.005,0.063,0.008
	c0.032,0.004,0.064,0.007,0.096,0.01c0.022,0.002,0.044,0.005,0.066,0.007c0.033,0.003,0.065,0.006,0.098,0.009
	c0.02,0.002,0.041,0.004,0.061,0.005c0.032,0.003,0.064,0.005,0.096,0.007c0.023,0.001,0.046,0.003,0.069,0.005
	c0.029,0.002,0.059,0.004,0.089,0.005c0.023,0.002,0.047,0.003,0.07,0.004c0.033,0.002,0.067,0.003,0.1,0.004
	c0.02,0.001,0.04,0.002,0.06,0.002c0.034,0.001,0.068,0.002,0.102,0.003c0.02,0.001,0.04,0.001,0.06,0.001
	c0.053,0.001,0.107,0.001,0.16,0.001s0.106-0.001,0.16-0.001c0.02,0,0.039-0.001,0.059-0.001c0.034-0.001,0.069-0.001,0.103-0.003
	c0.02,0,0.039-0.001,0.059-0.002c0.034-0.001,0.068-0.002,0.102-0.004c0.023-0.001,0.046-0.002,0.068-0.004
	c0.03-0.002,0.061-0.003,0.091-0.005c0.022-0.001,0.044-0.003,0.066-0.005c0.033-0.002,0.066-0.005,0.099-0.007
	c0.019-0.001,0.038-0.003,0.056-0.005c0.034-0.003,0.069-0.006,0.103-0.009c0.02-0.002,0.041-0.004,0.061-0.006
	c0.034-0.003,0.068-0.007,0.101-0.011c0.019-0.002,0.038-0.004,0.057-0.007c0.035-0.004,0.069-0.008,0.104-0.013
	c0.019-0.003,0.038-0.005,0.057-0.008c0.035-0.005,0.069-0.009,0.104-0.015c0.018-0.003,0.035-0.005,0.053-0.008
	c0.038-0.006,0.076-0.012,0.115-0.018c0.014-0.003,0.027-0.005,0.041-0.007c0.041-0.007,0.081-0.014,0.122-0.021
	c0.013-0.002,0.025-0.004,0.038-0.007c0.041-0.007,0.081-0.015,0.122-0.023c0.013-0.003,0.026-0.005,0.04-0.008
	c0.043-0.009,0.085-0.018,0.128-0.027c0.009-0.002,0.019-0.004,0.028-0.006c0.046-0.01,0.092-0.021,0.139-0.031
	c0.007-0.001,0.013-0.003,0.02-0.005c0.05-0.012,0.099-0.024,0.148-0.036c0.003-0.001,0.006-0.001,0.009-0.002
	c0.052-0.013,0.104-0.027,0.155-0.04c0.001-0.001,0.003-0.001,0.004-0.001c0.265-0.072,0.527-0.154,0.787-0.248
	c0.016-0.006,0.031-0.011,0.047-0.017c0.035-0.013,0.069-0.025,0.104-0.039c0.022-0.008,0.044-0.017,0.067-0.026
	c0.028-0.011,0.056-0.021,0.083-0.032c0.026-0.011,0.053-0.021,0.079-0.032c0.023-0.009,0.046-0.019,0.069-0.028
	c0.033-0.014,0.066-0.028,0.098-0.042c0.015-0.007,0.031-0.013,0.046-0.02c0.035-0.015,0.07-0.031,0.106-0.047
	c0.014-0.006,0.029-0.013,0.043-0.019c0.039-0.018,0.077-0.035,0.115-0.053c0.008-0.004,0.016-0.008,0.024-0.011
	c0.042-0.02,0.083-0.04,0.125-0.06c0.007-0.003,0.013-0.006,0.02-0.01c0.044-0.022,0.089-0.044,0.133-0.067l0.004-0.002
	c0.125-0.064,0.249-0.13,0.371-0.2l75.674-41.888c3.182-1.762,5.157-5.111,5.157-8.749v-90.199c0-0.111-0.002-0.222-0.006-0.332
	c-0.001-0.033-0.003-0.065-0.004-0.098c-0.001-0.024-0.002-0.048-0.003-0.072c-0.001-0.03-0.003-0.059-0.005-0.089
	c-0.001-0.025-0.003-0.05-0.004-0.076c-0.002-0.028-0.004-0.055-0.006-0.082c-0.002-0.029-0.004-0.058-0.007-0.087
	c-0.002-0.023-0.004-0.045-0.006-0.068c-0.003-0.032-0.006-0.065-0.009-0.097c-0.003-0.027-0.006-0.054-0.009-0.081
	s-0.006-0.054-0.009-0.081c-0.004-0.033-0.008-0.066-0.012-0.1c-0.002-0.02-0.005-0.041-0.008-0.061
	c-0.004-0.033-0.009-0.066-0.014-0.1c-0.003-0.022-0.006-0.045-0.01-0.067c-0.005-0.031-0.01-0.062-0.014-0.093
	c-0.004-0.023-0.007-0.046-0.011-0.069c-0.005-0.03-0.01-0.061-0.016-0.091c-0.004-0.024-0.009-0.049-0.013-0.073
	c-0.006-0.031-0.012-0.061-0.017-0.091c-0.004-0.022-0.009-0.045-0.013-0.068c-0.006-0.031-0.013-0.063-0.02-0.094
	c-0.005-0.022-0.009-0.045-0.014-0.067c-0.007-0.031-0.014-0.062-0.021-0.093c-0.005-0.023-0.01-0.045-0.016-0.067
	c-0.007-0.03-0.014-0.061-0.022-0.091c-0.006-0.023-0.011-0.046-0.017-0.069c-0.007-0.029-0.015-0.058-0.023-0.088
	c-0.006-0.024-0.013-0.048-0.019-0.072c-0.008-0.029-0.016-0.059-0.024-0.088c-0.006-0.022-0.013-0.045-0.019-0.067
	c-0.009-0.032-0.019-0.063-0.028-0.095c-0.006-0.02-0.012-0.039-0.018-0.058c-0.01-0.032-0.02-0.064-0.03-0.095
	c-0.007-0.022-0.014-0.043-0.021-0.065c-0.01-0.03-0.02-0.06-0.03-0.089c-0.007-0.021-0.014-0.042-0.021-0.063
	c-0.01-0.031-0.021-0.061-0.032-0.092c-0.008-0.022-0.016-0.044-0.023-0.065c-0.01-0.029-0.021-0.057-0.031-0.085
	c-0.008-0.022-0.017-0.044-0.025-0.067c-0.011-0.029-0.022-0.058-0.033-0.087c-0.009-0.022-0.017-0.044-0.026-0.066
	c-0.011-0.028-0.022-0.056-0.033-0.083c-0.009-0.023-0.019-0.046-0.028-0.069c-0.011-0.027-0.022-0.054-0.034-0.081
	c-0.01-0.024-0.021-0.047-0.031-0.071c-0.012-0.027-0.023-0.053-0.035-0.08c-0.01-0.022-0.02-0.043-0.03-0.065
	c-0.013-0.027-0.025-0.055-0.038-0.082c-0.011-0.023-0.022-0.046-0.033-0.069c-0.012-0.025-0.024-0.05-0.036-0.075
	c-0.013-0.027-0.026-0.053-0.039-0.08c-0.01-0.021-0.021-0.042-0.032-0.064c-0.015-0.029-0.029-0.057-0.044-0.086
	c-0.01-0.019-0.02-0.039-0.03-0.058c-0.016-0.03-0.032-0.06-0.048-0.09c-0.009-0.017-0.019-0.035-0.028-0.052
	c-0.019-0.035-0.038-0.069-0.058-0.104c-0.007-0.012-0.013-0.024-0.02-0.036c-0.021-0.038-0.043-0.076-0.065-0.113
	c-0.005-0.009-0.011-0.018-0.016-0.027c-0.022-0.037-0.044-0.073-0.066-0.109c-0.006-0.011-0.013-0.021-0.019-0.032
	c-0.841-1.373-2.015-2.546-3.449-3.392c-0.102-0.06-0.205-0.118-0.309-0.174l-75.689-41.896c-3.013-1.668-6.673-1.668-9.686,0
	l-75.697,41.9c-0.101,0.055-0.202,0.112-0.301,0.17c-1.434,0.845-2.608,2.018-3.449,3.392c-0.007,0.01-0.013,0.021-0.019,0.032
	C171.669,177.591,171.647,177.628,171.625,177.665z M190.237,199.712l6.588,3.646L246,230.578v67.34l-55.763-30.866V199.712z
	 M266,297.918v-67.34l49.175-27.22l6.588-3.646v67.34L266,297.918z M256,152.24l55.114,30.507L256,213.254l-55.114-30.507
	L256,152.24z"/>
<g>
</g>
<g>
</g>
<g>
</g>
<g>
</g>
<g>
</g>
<g>
</g>
<g>
</g>
<g>
</g>
<g>
</g>
<g>
</g>
<g>
</g>
<g>
</g>
<g>
</g>
<g>
</g>
<g>
</g>
</svg>
